<svg width="655" height="200" viewBox="0 0 655 200" fill="none" xmlns="http://www.w3.org/2000/svg">
  <path
    d="M100.733 0C120.512 2.35852e-07 139.846 5.8649 156.29 16.853C172.735 27.8412 185.553 43.459 193.121 61.7317C200.69 80.0043 202.67 100.111 198.812 119.509C194.953 138.907 185.429 156.725 171.444 170.711C157.459 184.696 139.641 194.22 120.242 198.079C100.844 201.937 80.7377 199.957 62.4651 192.388C44.1924 184.819 28.5746 172.002 17.5864 155.557C6.5983 139.112 0.733398 119.778 0.733398 100H100.733V0Z"
    fill="currentcolor" />
  <path
    d="M318.733 200C318.733 186.605 316.095 173.341 310.969 160.966C305.843 148.591 298.33 137.347 288.858 127.875C279.387 118.404 268.142 110.89 255.767 105.764C243.392 100.638 230.128 98 216.733 98L216.733 200H318.733Z"
    fill="currentcolor" />
  <path d="M494.733 40H334.733V200H414.733V120H494.733V40Z" fill="currentcolor" />
  <rect x="575" y="120" width="80" height="80" fill="currentcolor" />
  <path d="M496.733 200H540.733L496.733 128V200Z" fill="currentcolor" />
  <path d="M492.733 128L448.733 200H492.733V128Z" fill="currentcolor" />
</svg>
