<svg enable-background="new 0 0 512 512" width="512" height="512" viewBox="0 0 512 512" xmlns="http://www.w3.org/2000/svg" fill="currentcolor">
	<g>
		<g>
			<path
				d="m126.291 241.522c48.691 0 88.303-39.613 88.303-88.304v-64.914c0-48.691-39.612-88.304-88.303-88.304h-15.898c-48.69 0-88.303 39.613-88.303 88.304v64.915c0 48.691 39.613 88.304 88.304 88.304h15.897zm-83.919-88.304v-64.914c0-37.507 30.514-68.022 68.022-68.022h15.898c37.507 0 68.021 30.514 68.021 68.022v64.915c0 37.507-30.514 68.022-68.021 68.022h-15.898c-37.508-.001-68.022-30.515-68.022-68.023z" />
			<path
				d="m221.37 275.009-11.962-3.006c-48.171-12.107-97.218 17.238-109.325 65.412l-23.55 93.708c-7.367 29.313 10.488 59.154 39.801 66.52l46.169 11.603c7.331 1.842 14.748 2.754 22.116 2.753 16.086 0 31.932-4.344 46.094-12.817 20.649-12.355 35.251-32.011 41.115-55.348l14.953-59.501c5.865-23.337 2.291-47.561-10.064-68.211-12.353-20.647-32.01-35.249-55.347-41.113zm45.743 104.382-14.953 59.501c-4.545 18.083-15.859 33.314-31.859 42.887s-34.77 12.343-52.853 7.798l-46.17-11.603c-8.946-2.248-16.48-7.845-21.216-15.76s-6.106-17.201-3.858-26.146l23.55-93.709c4.545-18.083 15.858-33.313 31.859-42.887 10.975-6.566 23.252-9.932 35.717-9.932 5.708 0 11.456.706 17.136 2.133l11.962 3.006c18.083 4.545 33.314 15.859 42.887 31.859 9.572 16 12.342 34.77 7.798 52.853z" />
			<path
				d="m488.899 213.362-8.709-57.542c-4.218-27.865-24.597-50.337-51.919-57.248l-55.571-14.058c-22.731-5.749-46.67.221-64.038 15.972s-25.643 38.995-22.133 62.178l14.922 98.587c2.791 18.443 12.597 34.694 27.612 45.761 12.132 8.942 26.49 13.634 41.285 13.634 3.516 0 7.057-.265 10.599-.801l33.167-5.02c48.59-7.355 82.139-52.871 74.785-101.463zm-77.821 81.41-33.167 5.02c-13.084 1.981-26.16-1.253-36.814-9.106s-17.612-19.384-19.593-32.47l-14.922-98.587c-2.527-16.695 3.197-32.776 15.705-44.119 9.325-8.457 20.903-12.905 32.975-12.905 4.12 0 8.298.518 12.463 1.572l55.572 14.058c19.387 4.904 33.847 20.848 36.84 40.62l8.709 57.542c5.68 37.535-20.234 72.693-57.768 78.375z" />
			<path
				d="m146.69 174.036c2.376 2.376 6.229 2.376 8.605 0s2.376-6.229 0-8.605l-28.345-28.345 28.345-28.346c2.376-2.376 2.376-6.229 0-8.605l-32.65-32.65c-2.376-2.376-6.229-2.376-8.605 0l-32.651 32.65c-1.141 1.141-1.782 2.689-1.782 4.302 0 1.614.641 3.161 1.782 4.302l28.346 28.346-28.346 28.345c-2.376 2.376-2.376 6.229 0 8.605 1.188 1.188 2.745 1.782 4.302 1.782s3.115-.594 4.302-1.782l28.349-28.348zm-28.348-93.643 24.046 24.046-24.046 24.046-24.046-24.046z" />
			<path
				d="m191.267 331.589c-1.264-2.112-3.673-3.257-6.11-2.895-2.434.359-4.413 2.149-5.012 4.536l-17.284 68.778c-.001.005-.002.009-.004.014l-8.642 34.388c-.819 3.259 1.159 6.565 4.418 7.384.498.125.996.185 1.487.185 2.723 0 5.203-1.842 5.896-4.603l5.063-20.149 18.209 30.433c1.14 1.905 3.158 2.962 5.227 2.962 1.063 0 2.14-.279 3.118-.864 2.884-1.726 3.823-5.462 2.098-8.346l-22.625-37.813 37.814-22.625c2.884-1.726 3.823-5.462 2.097-8.345zm-13.027 59.152 10.127-40.298 15.085 25.213z" />
			<path
				d="m425.77 211.836-9.78-64.565c-.368-2.433-2.166-4.405-4.555-4.996-2.39-.591-4.899.316-6.358 2.297l-23.771 32.258-32.252-23.778c-1.981-1.459-4.646-1.584-6.754-.312-2.107 1.271-3.241 3.686-2.873 6.12l9.766 64.567v.001l4.881 32.276c.456 3.014 3.05 5.176 6.009 5.176.303 0 .609-.023.917-.069 3.323-.503 5.609-3.603 5.107-6.926l-4.507-29.785 22.284-30.226 30.231 22.277 4.512 29.784c.457 3.014 3.05 5.174 6.008 5.174.303 0 .61-.023.918-.07 3.323-.503 5.608-3.604 5.105-6.927zm-66.743-4.753-5.372-35.518 20.446 15.073zm32.062-23.017 15.069-20.449 5.38 35.518z" />
		</g>
		<g>
			<path
				d="m139.694 370.456c-.818 0-1.649-.1-2.479-.308-5.432-1.365-8.729-6.875-7.364-12.307l3.245-12.915c1.854-7.375 5.272-14.039 10.16-19.807 3.621-4.274 10.02-4.802 14.293-1.181s4.801 10.02 1.181 14.293c-2.865 3.382-4.872 7.298-5.963 11.639l-3.245 12.915c-1.157 4.602-5.289 7.671-9.828 7.671z" />
			<path
				d="m375.578 138.615c-.823 0-1.66-.101-2.495-.312l-12.269-3.104c-3.859-.977-7.787-.678-11.361.862-5.144 2.216-11.111-.156-13.326-5.3-2.216-5.144.156-11.11 5.3-13.326 7.712-3.323 16.136-3.979 24.363-1.898l12.268 3.103c5.429 1.374 8.717 6.889 7.344 12.319-1.163 4.594-5.291 7.655-9.824 7.656z" />
		</g>
		<g>
			<path
				d="m393.804 364.833-8.33 23.423c-.357 1.003-1.063 1.797-1.954 2.199l-20.81 9.376c-2.94 1.325-2.94 6.009 0 7.334l20.81 9.376c.891.401 1.597 1.196 1.954 2.199l8.33 23.423c1.177 3.309 5.339 3.309 6.516 0l8.33-23.423c.357-1.003 1.063-1.798 1.954-2.199l20.811-9.376c2.94-1.325 2.94-6.009 0-7.334l-20.811-9.376c-.891-.401-1.597-1.196-1.954-2.199l-8.33-23.423c-1.177-3.309-5.339-3.309-6.516 0z" />
			<path
				d="m262.473 8.384-6.179 17.375c-.265.744-.788 1.333-1.449 1.631l-15.437 6.955c-2.181.983-2.181 4.457 0 5.44l15.437 6.955c.661.298 1.185.887 1.449 1.631l6.179 17.375c.873 2.455 3.96 2.455 4.833 0l6.179-17.375c.265-.744.788-1.333 1.449-1.631l15.437-6.955c2.181-.983 2.181-4.457 0-5.44l-15.437-6.955c-.661-.298-1.185-.887-1.449-1.631l-6.179-17.375c-.873-2.455-3.961-2.455-4.833 0z" />
			<path
				d="m27.696 306.835c0 10.046 8.144 18.189 18.189 18.189s18.189-8.144 18.189-18.189c0-10.046-8.144-18.189-18.189-18.19-10.045 0-18.189 8.144-18.189 18.19z" />
			<path
				d="m235.183 228.885c0 4.201 3.405 7.606 7.606 7.606s7.606-3.405 7.606-7.606-3.405-7.606-7.606-7.606c-4.201.001-7.606 3.406-7.606 7.606z" />
		</g>
	</g>
</svg>
