<svg xmlns="http://www.w3.org/2000/svg" viewBox="0 0 107.717 107.717"><defs><style>.cls-1{fill:#ef4623;}.cls-2{fill:#fff;}</style></defs><title>svelte-put-2</title><g id="Layer_2" data-name="Layer 2"><g id="Layer_2-2" data-name="Layer 2"><path class="cls-1" d="M31.977,55.845a25.624,25.624,0,0,0,6.5,3.014l.737.222-.038.4h14.34L66.06,51.536a4.1,4.1,0,0,0,1.861-2.74,4.349,4.349,0,0,0-.75-3.3,4.757,4.757,0,0,0-5.088-1.877,4.346,4.346,0,0,0-1.215.531L53.307,48.94A14.545,14.545,0,0,1,49.284,50.7a15.789,15.789,0,0,1-16.891-6.222A14.4,14.4,0,0,1,29.9,33.528a13.576,13.576,0,0,1,6.176-9.1L55.891,11.885a14.507,14.507,0,0,1,4.026-1.757,15.788,15.788,0,0,1,16.891,6.221A14.4,14.4,0,0,1,79.3,27.3a13.9,13.9,0,0,1-.473,1.839l-.374,1.13-1.014-.74a25.6,25.6,0,0,0-7.751-3.849l-.736-.222.068-.73a4.4,4.4,0,0,0-.8-2.927,4.755,4.755,0,0,0-5.086-1.876,4.39,4.39,0,0,0-1.217.532L42.1,33a4.089,4.089,0,0,0-1.86,2.74,4.344,4.344,0,0,0,.748,3.3,4.759,4.759,0,0,0,5.088,1.877,4.43,4.43,0,0,0,1.217-.531L54.854,35.6a14.489,14.489,0,0,1,4.023-1.757A15.789,15.789,0,0,1,75.768,40.06a14.4,14.4,0,0,1,2.489,10.946,13.539,13.539,0,0,1-.783,2.692l8.317-10.3a1.73,1.73,0,0,1,1.349-.627h.483a23.647,23.647,0,0,0-1.92-4.947,22.555,22.555,0,0,0,3.4-8.44,23.942,23.942,0,0,0-4.138-18.2h0C77.064-.05,61.461-3.38,50.18,3.762L30.368,16.309A22.579,22.579,0,0,0,20.1,31.437,23.627,23.627,0,0,0,20.835,42.8a1.706,1.706,0,0,1,1.09.6Z"/><path class="cls-2" d="M107.539,43.64a1.7,1.7,0,0,0-1.509-.866H87.14a1.73,1.73,0,0,0-1.349.627L77.474,53.7a13.539,13.539,0,0,0,.783-2.692A14.4,14.4,0,0,0,75.768,40.06a15.789,15.789,0,0,0-16.891-6.222A14.489,14.489,0,0,0,54.854,35.6L47.3,40.383a4.43,4.43,0,0,1-1.217.531,4.759,4.759,0,0,1-5.088-1.877,4.344,4.344,0,0,1-.748-3.3A4.089,4.089,0,0,1,42.1,33L61.915,20.452a4.39,4.39,0,0,1,1.217-.532A4.755,4.755,0,0,1,68.218,21.8a4.4,4.4,0,0,1,.8,2.927l-.068.73.736.222a25.6,25.6,0,0,1,7.751,3.849l1.014.74.374-1.13A13.9,13.9,0,0,0,79.3,27.3a14.4,14.4,0,0,0-2.489-10.946,15.788,15.788,0,0,0-16.891-6.221,14.507,14.507,0,0,0-4.026,1.757L36.08,24.432a13.576,13.576,0,0,0-6.176,9.1,14.4,14.4,0,0,0,2.489,10.946A15.789,15.789,0,0,0,49.284,50.7a14.545,14.545,0,0,0,4.023-1.756l7.561-4.789a4.346,4.346,0,0,1,1.215-.531A4.757,4.757,0,0,1,67.171,45.5a4.349,4.349,0,0,1,.75,3.3,4.1,4.1,0,0,1-1.861,2.74L53.515,59.48H39.175l.038-.4-.737-.222a25.624,25.624,0,0,1-6.5-3.014L21.925,43.4a1.706,1.706,0,0,0-1.09-.6,1.848,1.848,0,0,0-.259-.028H1.686a1.7,1.7,0,0,0-1.508.866,1.476,1.476,0,0,0,.159,1.64L13.493,61.568V106.15a1.63,1.63,0,0,0,1.686,1.567H92.537a1.63,1.63,0,0,0,1.687-1.567V61.567L107.379,45.28A1.474,1.474,0,0,0,107.539,43.64ZM51.272,62.612v6.055H36.655V62.612ZM5.06,45.906H19.733L30.7,59.479H16.022Zm85.791,58.678H75.334V99.468a1.691,1.691,0,0,0-3.373,0v5.116H16.866V62.612H33.282v7.622A1.63,1.63,0,0,0,34.969,71.8h17.99a1.629,1.629,0,0,0,1.686-1.566V62.612H71.961V92.368a1.691,1.691,0,0,0,3.373,0V62.612H90.851Zm.843-45.1H77.021L87.984,45.906h14.673Z"/><rect class="cls-1" x="36.655" y="62.612" width="14.617" height="6.056"/><polygon class="cls-1" points="30.696 59.479 19.733 45.906 5.06 45.906 16.022 59.479 30.696 59.479"/><path class="cls-1" d="M75.334,62.612V92.368a1.691,1.691,0,0,1-3.373,0V62.612H54.645v7.622A1.629,1.629,0,0,1,52.959,71.8H34.969a1.63,1.63,0,0,1-1.687-1.566V62.612H16.866v41.972h55.1V99.468a1.691,1.691,0,0,1,3.373,0v5.116H90.851V62.612Z"/><polygon class="cls-1" points="87.984 45.906 77.021 59.479 91.694 59.479 102.657 45.906 87.984 45.906"/></g></g></svg>