<?xml version="1.0" standalone="no"?>
<!DOCTYPE svg PUBLIC "-//W3C//DTD SVG 20010904//EN" "http://www.w3.org/TR/2001/REC-SVG-20010904/DTD/svg10.dtd">
<svg version="1.0" xmlns="http://www.w3.org/2000/svg" width="700.000000pt" height="700.000000pt"
  viewBox="0 0 700.000000 700.000000" preserveAspectRatio="xMidYMid meet">
  <metadata>
    Created by potrace 1.14, written by Peter Selinger 2001-2017
  </metadata>
  <g transform="translate(0.000000,700.000000) scale(0.100000,-0.100000)" fill="#000000" stroke="none">
    <path d="M3900 6985 c-184 -26 -336 -73 -500 -154 -96 -48 -1379 -855 -1523
-959 -90 -65 -253 -229 -319 -322 -259 -364 -340 -827 -222 -1265 13 -50 21
-62 47 -75 22 -10 138 -146 359 -420 180 -223 339 -415 355 -428 44 -35 238
-128 343 -163 52 -18 100 -38 106 -45 9 -11 97 -14 474 -14 l463 0 406 256
c223 141 423 273 444 293 110 104 108 280 -5 393 -57 57 -111 81 -199 86 -100
6 -109 2 -442 -210 -150 -95 -306 -187 -348 -205 -106 -46 -217 -72 -334 -80
-471 -28 -914 284 -1045 738 -31 106 -38 307 -16 419 43 209 154 396 309 518
54 42 1313 844 1437 915 126 72 285 110 460 110 321 0 605 -136 806 -387 200
-250 263 -576 169 -874 l-26 -81 -67 47 c-148 105 -307 187 -464 238 l-88 28
0 71 c0 87 -29 154 -91 214 -76 73 -208 102 -305 67 -50 -18 -1348 -838 -1392
-879 -50 -48 -76 -111 -76 -187 -1 -144 101 -264 248 -291 102 -18 140 -4 373
143 429 271 484 299 646 334 97 21 297 21 402 -1 196 -41 371 -134 515 -275
131 -128 213 -263 267 -437 25 -81 27 -102 27 -253 0 -139 -4 -176 -22 -235
-11 -38 -19 -71 -18 -72 2 -2 119 141 261 318 142 176 270 329 283 340 14 10
40 19 59 19 34 0 34 1 27 33 -9 42 -67 193 -94 247 l-21 41 36 59 c80 132 143
296 181 470 27 122 27 468 0 590 -68 316 -205 574 -428 805 -159 166 -310 275
-510 370 -293 138 -638 193 -948 150z" />
    <path d="M347 3996 c10 -14 171 -214 358 -445 l339 -421 473 0 c260 0 473 3
472 8 0 4 -159 203 -353 442 l-353 435 -477 3 -478 2 19 -24z" />
    <path d="M5703 3998 c-40 -45 -693 -857 -693 -863 0 -3 213 -5 473 -5 l472 0
340 421 c187 231 348 431 358 445 l19 24 -474 0 -475 0 -20 -22z" />
    <path d="M1100 1565 l0 -1365 1788 2 1787 3 5 186 c5 200 7 207 63 236 40 20
87 10 123 -28 l29 -30 3 -185 4 -184 499 0 499 0 0 1365 0 1365 -500 0 -500 0
0 -965 c0 -1040 1 -1012 -51 -1049 -13 -9 -43 -16 -67 -16 -35 0 -49 6 -73 29
l-29 29 0 986 0 986 -565 0 -565 0 0 -257 c0 -285 -2 -296 -60 -326 -32 -16
-79 -17 -645 -15 -670 3 -640 0 -670 64 -12 26 -15 81 -15 283 l0 251 -530 0
-530 0 0 -1365z" />
    <path d="M2380 2735 l0 -195 475 0 475 0 0 195 0 195 -475 0 -475 0 0 -195z" />
  </g>
</svg>
