<svg xmlns="http://www.w3.org/2000/svg" height="48" viewBox="0 96 960 960" width="48"><path d="m753 452-44-94-94-44 94-44 44-94 44 94 94 44-94 44-44 94Zm84 289-29.76-63.24L744 648l63.24-29.76L837 555l29.76 63.24L930 648l-63.24 29.76L837 741ZM314 976l-10-92q-14-2-29-9t-26-17l-78 33-88-144 76-50q-5-17-5-30t5-30l-76-50 88-144 78 33q11-10 26-17t29-9l10.075-92H482l10 92q14 2 29 9t26 17l78-33 88 144-76 50q5 17 5 30t-5 30l76 50-88 144-78-33q-11 10-26 17t-29 9l-10.075 92H314Zm84-194q50 0 82.5-32.5T513 667q0-50-32.5-82.5T398 552q-50 0-82.5 32.5T283 667q0 50 32.5 82.5T398 782Zm0-60q-24 0-39.5-15.5T343 667q0-24 15.5-39.5T398 612q24 0 39.5 15.5T453 667q0 24-15.5 39.5T398 722Zm-34 194h68l8-76q29-7 53-20t43.767-34L602 815l33-52-62-44q11-25 11-52t-11-52l62-44-33-52-65.233 29Q517 527 493 514q-24-13-53-20l-8-76h-68l-8 76q-29 7-53 20t-43.767 34L194 519l-33 52 62 44q-11 25-11 52t11 52l-62 44 33 52 65.233-29Q279 807 303 820q24 13 53 20l8 76Zm34-249Z"/></svg>